<?xml version="1.0" standalone="no"?>
<!DOCTYPE svg PUBLIC "-//W3C//DTD SVG 20010904//EN"
 "http://www.w3.org/TR/2001/REC-SVG-20010904/DTD/svg10.dtd">
<svg version="1.0" xmlns="http://www.w3.org/2000/svg"
 width="512.000000pt" height="512.000000pt" viewBox="0 0 512.000000 512.000000"
 preserveAspectRatio="xMidYMid meet">
<metadata>
Created by potrace 1.13, written by Peter Selinger 2001-2015
</metadata>
<g transform="translate(0.000000,512.000000) scale(0.100000,-0.100000)"
fill="#000000" stroke="none">
<path d="M756 4835 c-100 -41 -179 -121 -221 -222 -19 -47 -20 -78 -23 -1060
l-2 -1013 -51 -26 c-66 -33 -131 -100 -166 -172 -25 -51 -28 -67 -28 -162 0
-99 2 -109 33 -172 39 -80 118 -156 194 -188 l53 -22 145 -436 c79 -241 156
-465 171 -499 15 -33 45 -81 68 -106 51 -55 143 -105 208 -113 102 -12 97 2
51 -134 -46 -138 -45 -171 3 -220 25 -25 39 -30 77 -30 55 0 105 27 125 67 8
15 35 92 61 170 l48 143 1058 0 1058 0 52 -156 c64 -191 81 -215 163 -222 54
-4 58 -3 91 30 54 54 55 86 8 228 l-41 120 39 0 c57 0 159 36 212 75 89 66
105 100 275 613 l158 474 62 28 c78 35 150 106 189 185 26 55 29 69 29 165 0
90 -3 112 -24 153 -38 76 -113 152 -189 189 l-67 33 -1902 3 -1903 2 0 978 c0
962 0 977 20 1010 41 66 134 77 267 31 60 -20 163 -82 163 -98 0 -5 -7 -14
-16 -22 -39 -32 -46 -68 -42 -193 6 -143 30 -220 104 -323 60 -84 94 -105 158
-100 l48 4 284 284 c301 301 312 315 293 384 -12 43 -88 111 -173 153 -93 46
-183 64 -297 60 -91 -3 -99 -5 -136 -34 l-38 -31 -45 39 c-61 52 -210 125
-295 143 -111 23 -238 19 -309 -10z m930 -365 l28 -11 -144 -144 c-93 -93
-147 -140 -151 -133 -4 7 -11 34 -14 61 l-7 49 93 94 c85 85 97 94 131 94 20
0 49 -5 64 -10z m2879 -2203 c61 -61 53 -154 -17 -197 -33 -20 -45 -20 -1988
-20 -1943 0 -1955 0 -1988 20 -70 43 -78 136 -17 197 l33 33 1972 0 1972 0 33
-33z m-268 -489 c-2 -7 -64 -193 -137 -413 -73 -220 -137 -407 -143 -416 -6
-9 -23 -24 -38 -33 -25 -15 -155 -16 -1418 -16 -1029 0 -1397 3 -1415 12 -14
6 -32 21 -40 33 -8 12 -74 201 -146 421 -73 219 -135 405 -137 412 -4 9 347
12 1737 12 1390 0 1741 -3 1737 -12z"/>
<path d="M2124 4340 c-79 -32 -95 -166 -27 -220 49 -38 150 -21 187 32 20 29
20 100 1 138 -26 51 -102 74 -161 50z"/>
<path d="M1843 4070 c-45 -27 -62 -86 -42 -143 39 -114 198 -114 238 0 13 37
13 45 -3 87 -12 31 -28 51 -46 61 -41 21 -109 19 -147 -5z"/>
<path d="M2282 4054 c-52 -36 -67 -122 -32 -179 35 -56 120 -75 174 -40 76 50
74 180 -4 220 -38 19 -109 19 -138 -1z"/>
<path d="M1603 3821 c-128 -80 -34 -282 106 -229 84 32 108 146 44 210 -40 40
-104 48 -150 19z"/>
<path d="M2020 3792 c-102 -51 -83 -199 31 -234 31 -9 43 -8 75 8 54 27 77 63
76 119 0 51 -23 84 -74 111 -36 19 -66 18 -108 -4z"/>
<path d="M2469 3773 c-85 -52 -75 -191 16 -229 44 -18 59 -18 102 3 122 58 81
244 -54 243 -21 0 -50 -8 -64 -17z"/>
<path d="M1734 3530 c-52 -21 -83 -96 -64 -153 33 -102 179 -119 233 -27 33
56 11 147 -44 175 -31 16 -92 19 -125 5z"/>
<path d="M2178 3504 c-36 -19 -58 -63 -58 -114 0 -73 51 -120 131 -120 33 0
47 6 74 33 60 60 59 134 -1 186 -40 35 -98 41 -146 15z"/>
<path d="M2665 3500 c-11 -4 -30 -19 -43 -32 -61 -66 -42 -162 40 -204 111
-57 226 81 155 187 -36 53 -96 73 -152 49z"/>
<path d="M1853 3220 c-109 -66 -63 -230 64 -230 55 0 98 24 118 66 19 40 19
65 1 108 -30 72 -114 98 -183 56z"/>
<path d="M2335 3212 c-94 -59 -71 -207 37 -231 100 -22 184 77 145 172 -19 44
-54 68 -110 74 -30 3 -51 -1 -72 -15z"/>
<path d="M2850 3223 c-31 -11 -71 -58 -80 -95 -29 -107 99 -198 190 -136 50
34 70 93 50 150 -23 67 -97 104 -160 81z"/>
<path d="M1971 2914 c-66 -55 -56 -170 19 -209 99 -51 209 38 180 145 -23 86
-132 121 -199 64z"/>
<path d="M2504 2930 c-83 -33 -86 -183 -4 -225 93 -48 204 31 186 131 -5 23
-21 51 -41 71 -28 28 -40 33 -76 32 -24 0 -54 -4 -65 -9z"/>
<path d="M3009 2925 c-84 -46 -83 -177 2 -223 41 -22 116 -10 151 25 56 56 44
164 -23 198 -35 19 -96 19 -130 0z"/>
</g>
</svg>
