<?xml version="1.0" standalone="no"?>
<!DOCTYPE svg PUBLIC "-//W3C//DTD SVG 20010904//EN"
 "http://www.w3.org/TR/2001/REC-SVG-20010904/DTD/svg10.dtd">
<svg version="1.0" xmlns="http://www.w3.org/2000/svg"
 width="512.000000pt" height="464.000000pt" viewBox="0 0 512.000000 464.000000"
 preserveAspectRatio="xMidYMid meet">
<metadata>
Created by potrace 1.13, written by Peter Selinger 2001-2015
</metadata>
<g transform="translate(0.000000,464.000000) scale(0.100000,-0.100000)"
fill="#000000" stroke="none">
<path d="M891 4522 c-226 -341 -409 -641 -463 -759 -28 -62 -28 -64 -28 -272
l0 -209 -112 -4 c-125 -4 -153 -14 -213 -73 -70 -71 -70 -71 -70 -365 0 -294
0 -294 70 -365 60 -59 88 -69 212 -73 l113 -4 0 -318 0 -318 -113 -4 c-124 -4
-152 -14 -212 -73 -70 -71 -70 -71 -70 -365 0 -294 0 -294 70 -365 60 -59 88
-69 212 -73 l112 -4 3 -352 c3 -390 2 -379 73 -451 73 -72 57 -70 485 -70 428
0 412 -2 485 70 71 72 70 61 73 453 l3 352 239 0 239 0 3 -352 c3 -392 2 -381
73 -453 73 -72 57 -70 485 -70 428 0 412 -2 485 70 71 72 70 61 73 453 l3 352
239 0 239 0 3 -352 c3 -392 2 -381 73 -453 73 -72 57 -70 485 -70 428 0 412
-2 485 70 71 72 70 61 73 451 l3 352 112 4 c124 4 152 14 212 73 70 71 70 71
70 365 0 295 0 294 -72 366 -58 59 -103 74 -220 74 l-103 0 0 319 0 319 112 4
c125 4 153 14 213 73 70 71 70 71 70 365 0 294 0 294 -70 365 -60 59 -88 69
-212 73 l-113 4 0 213 0 212 -53 104 c-64 126 -140 252 -307 509 -176 272
-194 300 -200 300 -11 -1 -343 -517 -440 -685 -123 -213 -120 -203 -120 -445
l0 -210 -240 0 -240 0 0 214 0 213 -53 104 c-64 126 -140 252 -307 509 -176
272 -194 300 -200 300 -11 -1 -343 -517 -440 -685 -123 -213 -120 -203 -120
-445 l0 -210 -240 0 -240 0 0 214 0 213 -53 104 c-64 126 -140 252 -307 509
-176 272 -194 300 -200 300 -3 0 -34 -44 -69 -98z m118 -260 c86 -129 249
-388 296 -469 l47 -82 2 -1753 c2 -1738 2 -1753 -18 -1775 l-19 -23 -359 0
c-334 0 -359 1 -376 18 -18 18 -19 55 -24 643 -2 343 -4 1129 -3 1745 l2 1122
43 78 c62 113 350 564 360 564 3 0 25 -31 49 -68z m1591 15 c91 -138 281 -439
314 -500 l38 -68 2 -1752 c2 -1737 2 -1752 -18 -1774 l-19 -23 -359 0 c-334 0
-359 1 -376 18 -18 18 -19 55 -24 643 -2 343 -4 1129 -3 1745 l2 1122 43 78
c62 113 350 564 360 564 3 0 21 -24 40 -53z m1600 0 c91 -138 281 -439 314
-500 l38 -68 2 -1752 c2 -1737 2 -1752 -18 -1774 l-19 -23 -359 0 c-334 0
-359 1 -376 18 -18 18 -19 55 -24 643 -2 343 -4 1129 -3 1745 l2 1122 43 78
c62 113 350 564 360 564 3 0 21 -24 40 -53z m-3730 -1437 l0 -280 -135 0
c-189 0 -175 -22 -175 280 0 302 -14 280 175 280 l135 0 0 -280z m1600 0 l0
-280 -320 0 -320 0 0 280 0 280 320 0 320 0 0 -280z m1600 0 l0 -280 -320 0
-320 0 0 280 0 280 320 0 320 0 0 -280z m1270 260 c19 -19 20 -33 20 -257 0
-304 14 -283 -187 -283 l-143 0 0 280 0 280 145 0 c132 0 147 -2 165 -20z
m-2940 -1020 l0 -320 -240 0 -240 0 0 320 0 320 240 0 240 0 0 -320z m1600 0
l0 -320 -240 0 -240 0 0 320 0 320 240 0 240 0 0 -320z m-3130 -760 l0 -280
-135 0 c-189 0 -175 -22 -175 280 0 302 -14 280 175 280 l135 0 0 -280z m1600
0 l0 -280 -320 0 -320 0 0 280 0 280 320 0 320 0 0 -280z m1600 0 l0 -280
-320 0 -320 0 0 280 0 280 320 0 320 0 0 -280z m1270 260 c19 -19 20 -33 20
-260 0 -303 15 -280 -185 -280 l-145 0 0 280 0 280 145 0 c132 0 147 -2 165
-20z"/>
<path d="M880 2938 c-57 -39 -75 -72 -75 -138 0 -44 5 -66 21 -86 70 -94 188
-96 250 -5 33 49 34 134 2 181 -47 68 -137 89 -198 48z"/>
<path d="M880 1418 c-57 -39 -75 -72 -75 -138 0 -44 5 -66 21 -86 70 -94 188
-96 250 -5 34 50 34 132 0 182 -46 67 -135 88 -196 47z"/>
<path d="M2480 2938 c-57 -39 -75 -72 -75 -138 0 -44 5 -66 21 -86 70 -94 188
-96 250 -5 33 49 34 134 2 181 -47 68 -137 89 -198 48z"/>
<path d="M2480 1418 c-57 -39 -75 -72 -75 -138 0 -44 5 -66 21 -86 70 -94 188
-96 250 -5 34 50 34 132 0 182 -46 67 -135 88 -196 47z"/>
<path d="M4080 2938 c-57 -39 -75 -72 -75 -138 0 -44 5 -66 21 -86 70 -94 188
-96 250 -5 33 49 34 134 2 181 -47 68 -137 89 -198 48z"/>
<path d="M4080 1418 c-57 -39 -75 -72 -75 -138 0 -44 5 -66 21 -86 70 -94 188
-96 250 -5 34 50 34 132 0 182 -46 67 -135 88 -196 47z"/>
</g>
</svg>
